<?xml version="1.0" encoding="UTF-8" standalone="no"?>
<!-- Created with Inkscape (http://www.inkscape.org/) -->

<svg version="1.1" id="svg2" width="24" height="24" viewBox="0 0 24 24" sodipodi:docname="ic_launcher.svg"
    inkscape:version="1.1.2 (0a00cf5339, 2022-02-04)" xmlns:inkscape="http://www.inkscape.org/namespaces/inkscape"
    xmlns:sodipodi="http://sodipodi.sourceforge.net/DTD/sodipodi-0.dtd" xmlns="http://www.w3.org/2000/svg">
  <defs
     id="defs6" />
  <sodipodi:namedview
     id="namedview4"
     pagecolor="#ffffff"
     bordercolor="#666666"
     borderopacity="1.0"
     inkscape:pageshadow="2"
     inkscape:pageopacity="0.0"
     inkscape:pagecheckerboard="0"
     showgrid="false"
     inkscape:zoom="6.8203125"
     inkscape:cx="25.145475"
     inkscape:cy="32.476518"
     inkscape:window-width="1920"
     inkscape:window-height="892"
     inkscape:window-x="1920"
     inkscape:window-y="144"
     inkscape:window-maximized="1"
     inkscape:current-layer="g8" />
  <g
     inkscape:groupmode="layer"
     inkscape:label="Image"
     id="g8">
    <path
       style="fill:#030303;stroke:none;stroke-width:0.0466127"
       d="m 8.6163625,4.1715761 c -1.7529094,0.07613 -2.4102615,1.953686 -2.4102615,3.468803 0,0.38649 0.2394968,0.941498 0.1733998,1.292644 -0.040512,0.215207 -0.3022566,0.436929 -0.4110425,0.62926 -0.2341196,0.4138176 -0.4006135,0.8491999 -0.509353,1.3125189 -0.1248234,0.531852 -0.1664938,1.09497 -0.1295054,1.64065 0.017848,0.263864 0.1538865,0.584681 0.1186592,0.843763 -0.041807,0.307833 -0.5046719,0.662822 -0.6695887,0.937514 -0.366277,0.610181 -0.5841228,1.314207 -0.7009695,2.015655 -0.4155752,2.494726 0.8426186,5.1725 3.6116372,5.295127 0.6176296,0.02733 1.24986,-0.113158 1.8076963,-0.378802 0.2558582,-0.12183 0.5172786,-0.383678 0.7879696,-0.450804 0.287841,-0.07139 0.708246,0.208315 1.019727,0.22205 V 24 h 1.390535 v -3.000045 c 0.311525,-0.01374 0.731884,-0.293442 1.019725,-0.22205 0.280425,0.06952 0.567756,0.339427 0.834322,0.466694 0.542818,0.259176 1.160354,0.389491 1.761344,0.362912 2.76902,-0.122627 4.027219,-2.800401 3.611642,-5.295127 -0.116532,-0.699526 -0.335583,-1.406927 -0.700973,-2.015655 -0.164918,-0.274738 -0.627781,-0.629634 -0.66959,-0.937514 -0.033,-0.242863 0.09173,-0.55079 0.114952,-0.796887 0.05081,-0.537711 0.0074,-1.115876 -0.115137,-1.64065 -0.111891,-0.478976 -0.277968,-0.9315613 -0.520014,-1.3593949 -0.110593,-0.195566 -0.369651,-0.416491 -0.411042,-0.636385 -0.06545,-0.347771 0.173399,-0.901842 0.173399,-1.285519 0,-1.514648 -0.658649,-3.392733 -2.41026,-3.468803 C 15.378834,2.3953671 13.926909,3.35e-7 11.999998,3.35e-7 10.073967,3.35e-7 8.6211829,2.3974531 8.6163625,4.1715761 m 5.4230865,0.375006 c -0.992425,-0.809258 -1.907026,-1.579219 -3.198231,-0.775005 -0.341283,0.212576 -0.569656,0.534462 -0.8806722,0.775005 0.003,-1.07344 0.7386062,-3.139299 2.0394522,-3.139299 1.300846,0 2.036531,2.065859 2.039451,3.139299 m -0.463511,3.328175 c -0.473384,-0.112455 -0.833487,-0.45596 -1.344184,-0.507617 -0.73221,-0.07411 -1.153913,0.352318 -1.807696,0.507617 -0.111753,-0.894341 0.06902,-1.780292 0.662868,-2.484412 0.238292,-0.282567 0.524092,-0.561056 0.913072,-0.561056 0.388979,0 0.674781,0.278489 0.913072,0.561056 0.593851,0.70412 0.77462,1.590071 0.662868,2.484412 M 9.2652781,5.7653501 8.991343,7.0309941 9.1725761,8.4841411 C 8.6711495,8.3668121 8.2116702,8.1708711 7.6893381,8.2966391 7.39181,7.5835651 7.5842137,5.9065871 8.4309576,5.6178791 c 0.2894633,-0.09867 0.5703971,0.03858 0.8343205,0.147471 m 7.0453789,2.531289 c -0.522331,-0.125768 -0.98181,0.07017 -1.483238,0.187502 l 0.181233,-1.453147 -0.273935,-1.265644 c 0.263924,-0.108892 0.544859,-0.246144 0.834322,-0.147471 0.844842,0.288052 1.038591,1.967046 0.741618,2.67876 m -2.36391,4.1719369 c -1.02093,-0.513617 -1.792585,-1.02114 -2.966475,-0.541273 -0.336787,0.137674 -0.605857,0.379693 -0.927024,0.541273 -0.2009792,-1.048047 0.08737,-2.050343 0.717424,-2.9062929 0.289926,-0.39385 0.712881,-0.795528 1.229326,-0.795528 0.521544,0 0.93685,0.3976 1.229326,0.795528 0.629495,0.8566059 0.918356,1.8585279 0.717423,2.9062929 M 8.8944693,13.312339 C 8.1434877,13.036382 7.5800884,12.778331 6.7623147,12.843582 6.6496348,11.941787 6.6823595,10.81602 7.2874273,10.077962 7.6104488,9.6838781 8.5382603,9.3913271 8.8911785,9.9671477 9.0237889,10.183526 8.6769894,10.897959 8.6367102,11.156057 c -0.1242677,0.796512 0.079866,1.397036 0.2577591,2.156282 m 8.3432117,-0.468757 c -0.817774,-0.06525 -1.381172,0.1928 -2.132155,0.468757 0.177896,-0.759246 0.382027,-1.35977 0.257759,-2.156282 -0.04027,-0.258098 -0.387078,-0.972531 -0.254467,-1.1889093 0.350137,-0.5712736 1.283186,-0.2894096 1.601432,0.1108143 0.599554,0.753949 0.641732,1.851028 0.527431,2.76562 m -5.469439,0.295364 c 1.035346,-0.154643 1.789666,0.818169 2.24437,1.62654 0.847068,1.50607 0.982691,3.681759 -0.761133,4.603898 -0.294932,0.155955 -0.598393,0.250363 -0.927023,0.297988 -1.438277,0.208363 -2.8150921,-0.919185 -2.9585487,-2.370598 -0.089922,-0.90906 0.2344904,-1.846996 0.6743627,-2.625039 0.361169,-0.638822 0.955854,-1.417475 1.727972,-1.532789 M 9.0798742,19.874938 C 7.8117518,20.60409 6.1087171,20.054285 5.5770229,18.65617 5.1536045,17.542731 5.3505043,16.061412 5.9489906,15.04674 c 0.4317155,-0.731917 1.0889282,-1.003562 1.8794019,-0.700041 0.1802126,0.06914 0.5125043,0.183987 0.5915329,0.380583 0.074398,0.184972 -0.1291336,0.512821 -0.1808622,0.694464 -0.1511041,0.53082 -0.2770874,1.084938 -0.2714324,1.64065 0.00712,0.698073 0.2250354,1.418505 0.5770261,2.015655 0.1622757,0.275301 0.4039962,0.507195 0.5352173,0.796887 m 5.8402478,0 c 0.13122,-0.289692 0.372942,-0.521586 0.535217,-0.796887 0.351991,-0.59715 0.569934,-1.317582 0.577026,-2.015655 0.0056,-0.552055 -0.112958,-1.115173 -0.272592,-1.64065 -0.05502,-0.181175 -0.25521,-0.50682 -0.179703,-0.694464 0.07913,-0.196596 0.411274,-0.311395 0.591534,-0.380583 0.787135,-0.302208 1.449679,-0.02855 1.879401,0.700041 0.601546,1.019828 0.797704,2.489897 0.371969,3.60943 -0.531696,1.398115 -2.23473,1.94792 -3.502852,1.218768 z"
       id="path917" />
  </g>
</svg>
